# xmcd CD database file
#
# Track frame offsets:
#	150
#	13905
#	29774
#	46497
#	64014
#	78581
#	100603
#	118656
#	143069
#	155349
#	170446
#	187631
#	206351
#	228723
#	250267
#	268581
#
# Disc length: 3830 seconds
#
# Revision: 1
# Processed by: cddbd v1.5.1PL2 Copyright (c) Steve Scherf et al.
# Submitted via: CDex 1.51
#
DISCID=d60ef410
DTITLE=ABBA - Tribute To ABBA
DYEAR=1900
DGENRE=Country
TTITLE0=Money Money Money
TTITLE1=Mamma Mia
TTITLE2=Dancing Queen
TTITLE3=The Name Of The Game
TTITLE4=Does Your Mother Know
TTITLE5=I Have A Dream
TTITLE6=Fernando
TTITLE7=Chiquitita
TTITLE8=Waterloo
TTITLE9=SOS
TTITLE10=Knowing Me Knowing You
TTITLE11=Summer Night City
TTITLE12=Ther Winner Takes It All
TTITLE13=Gimme Gimme Gimme 
TTITLE14=Take A Chance On Me
TTITLE15=Super Trouper
EXTD=
EXTT0=
EXTT1=
EXTT2=
EXTT3=
EXTT4=
EXTT5=
EXTT6=
EXTT7=
EXTT8=
EXTT9=
EXTT10=
EXTT11=
EXTT12=
EXTT13=
EXTT14=
EXTT15=
PLAYORDER=
